<?xml version="1.0" encoding="utf-8"?>
<!-- Generator: Adobe Illustrator 19.2.1, SVG Export Plug-In . SVG Version: 6.00 Build 0)  -->
<svg version="1.1" id="Layer_1" xmlns="http://www.w3.org/2000/svg" xmlns:xlink="http://www.w3.org/1999/xlink" x="0px" y="0px"
	 viewBox="0 0 175.7 93.1" style="enable-background:new 0 0 175.7 93.1;" xml:space="preserve">
<style type="text/css">
	.st0{fill:#80BED6;}
	.st1{fill:#00758D;}
	.st2{fill:#008BA5;}
	.st3{fill:#80bacc;}
</style>
<g>
	<path class="st0" d="M142.2,84.6c-0.9-0.3-1.1-1.9-0.5-3.7L152.9,50c0.6-1.8,1.9-3,2.8-2.7l0,0c0.9,0.3,1.1,1.9,0.5,3.7L145,81.9
		C144.4,83.7,143.1,84.9,142.2,84.6L142.2,84.6z"/>
	<g>
		<polyline class="st1" points="139,78.5 139,78.7 139,80.3 139,81.9 138.9,83.6 138.9,85.2 138.8,86.8 138.8,88.4 138.8,90 
			138.8,90.1 136.3,91.6 135.2,92.3 135.7,82.6 139,78.5 		"/>
		<polyline class="st0" points="138.8,90.1 148.4,91.3 143.4,93.1 135.2,92.3 136.3,91.6 138.8,90.1 		"/>
		<polygon class="st2" points="148.4,90.8 147.7,80.7 139,78.5 139,78.7 139,80.3 139,81.9 138.9,83.6 138.9,85.2 138.8,86.8 
			138.8,88.4 138.8,90 138.8,90.1 148.4,91.3 148.4,91.3 		"/>
	</g>
	<path class="st2" d="M159,33.6c-0.7,0.6-2.9-0.3-4.8-2.1L131.1,9.9l3.1-1.8l22.6,21.1C158.8,31,159.7,33,159,33.6L159,33.6z"/>
	<g>
		<polyline class="st1" points="124.5,0.9 124.5,1.3 124.4,3.4 124.4,5.5 124.3,7.6 124.2,9.8 124.2,11.9 124.1,14 124.1,16.1 
			124.1,16.2 120.8,18.2 119.4,19.1 120.1,6.3 124.5,0.9 		"/>
		<polyline class="st0" points="124.1,16.2 136.7,17.8 130.2,20.1 119.4,19.1 120.8,18.2 124.1,16.2 		"/>
		<polygon class="st2" points="136.7,17.2 135.9,3.9 124.5,0.9 124.5,1.3 124.4,3.4 124.4,5.5 124.3,7.6 124.2,9.8 124.2,11.9 
			124.1,14 124.1,16.1 124.1,16.2 136.7,17.8 136.7,17.8 		"/>
	</g>
	<polyline class="st1" points="152.5,16.3 152.5,16.9 152.4,20.9 152.3,24.9 152.2,28.9 152.1,32.9 152,36.9 151.9,40.9 151.8,44.9 
		151.8,45.1 145.6,48.9 142.9,50.5 144.3,26.4 152.5,16.3 	"/>
	<polyline class="st3" points="155.2,38.2 155.2,38.2 155.3,38.3 155.2,38.2 	"/>
	<polyline class="st0" points="151.8,45.1 175.7,48.1 163.3,52.5 142.9,50.5 145.6,48.9 151.8,45.1 	"/>
	<g>
		<g>
			<path class="st2" d="M60.7,65.1c0,0.6-0.4,1.1-0.9,1.1s-0.9-0.5-0.9-1.1s0.4-1.1,0.9-1.1C60.3,64.1,60.7,64.5,60.7,65.1z"/>
			<rect x="59" y="66.8" class="st2" width="1.5" height="8.7"/>
			<path class="st2" d="M109.6,65.1c0,0.6-0.4,1.1-0.9,1.1s-0.9-0.5-0.9-1.1s0.4-1.1,0.9-1.1C109.2,64.1,109.6,64.5,109.6,65.1z"/>
			<rect x="107.9" y="66.7" class="st2" width="1.5" height="8.9"/>
			<path class="st2" d="M45,73.1v-8.7L43.5,66v7.1c0,0,0,2.6,2.4,2.6l1.3-1.4H46C46,74.3,45,74.3,45,73.1z"/>
			<path class="st2" d="M56.3,73.1v-8.7L54.8,66v7.1c0,0,0,2.6,2.4,2.6l1.3-1.4h-1.2C57.3,74.3,56.3,74.3,56.3,73.1z"/>
			<polygon class="st2" points="54.1,68.5 54.2,66.8 58.4,66.8 58.4,68.5 			"/>
			<g>
				<g>
					<path class="st2" d="M53.6,75.5v-6.1c0-2.8-2.5-2.7-2.5-2.7h-2.9v1.5h2.3c1.8,0,1.6,1.2,1.6,1.2v0.7c-0.5-0.4-1.2-0.7-2-0.7
						c-1.8,0-3.2,1.4-3.2,3.1s1.4,3.1,3.2,3.1c0.7,0,1.4-0.3,2-0.7v0.6H53.6z M50.2,74.3c-1,0-1.9-0.8-1.9-1.8s0.8-1.8,1.9-1.8
						c1,0,1.9,0.8,1.9,1.8C52.1,73.5,51.2,74.3,50.2,74.3z"/>
				</g>
			</g>
			<g>
				<g>
					<path class="st2" d="M81.2,66.7h-2.9v1.5h2.3c1.8,0,1.6,1.2,1.6,1.2v0.7c-0.5-0.4-1.2-0.7-2-0.7c-1.8,0-3.2,1.4-3.2,3.1
						s1.4,3.1,3.2,3.1c0.7,0,1.4-0.3,2-0.7v0.6h1.5v-6.1C83.7,66.7,81.2,66.7,81.2,66.7z M80.3,74.3c-1,0-1.9-0.8-1.9-1.8
						s0.8-1.8,1.9-1.8c1,0,1.9,0.8,1.9,1.8C82.1,73.5,81.3,74.3,80.3,74.3z"/>
				</g>
			</g>
			<g>
				<g>
					<path class="st2" d="M120.6,66.7h-2.9v1.5h2.3c1.8,0,1.6,1.2,1.6,1.2v0.7c-0.5-0.4-1.2-0.7-2-0.7c-1.8,0-3.2,1.4-3.2,3.1
						s1.4,3.1,3.2,3.1c0.7,0,1.4-0.3,2-0.7v0.6h1.5v-6.1C123.1,66.7,120.6,66.7,120.6,66.7z M119.7,74.3c-1,0-1.9-0.8-1.9-1.8
						s0.8-1.8,1.9-1.8c1,0,1.9,0.8,1.9,1.8S120.7,74.3,119.7,74.3z"/>
				</g>
			</g>
			<g>
				<g>
					<path class="st2" d="M113.4,74c-1.8,0-1.6-1.2-1.6-1.2v-3.1h-1.5v3.1c0,2.8,2.5,2.7,2.5,2.7h2.9V74H113.4z"/>
				</g>
			</g>
			<g>
				<g>
					<path class="st2" d="M115.7,66.7h-2.9c0,0-2.5,0-2.5,2.7v1h1.5v-1c0,0-0.2-1.2,1.6-1.2h2.3L115.7,66.7z"/>
				</g>
			</g>
			<g>
				<g>
					<path class="st2" d="M104.5,66.7c0,0-2.5,0-2.5,2.7v6.1h1.5v-6.1c0,0-0.2-1.2,1.6-1.2h2.3v-1.5H104.5z"/>
				</g>
			</g>
			<g>
				<g>
					<path class="st2" d="M67.4,69.4c0-2.7-2.5-2.7-2.5-2.7h-3.5v8.7v0.1h1.5v-7.3h1.4c1.8,0,1.6,1.2,1.6,1.2v6.1h1.5V69.4z"/>
				</g>
			</g>
			<g>
				<g>
					<g>
						<path class="st2" d="M87.9,66.7h-3.5v8.9h1.5v-7.4h1.4c1.8,0,1.6,1.2,1.6,1.2v6.2h1.5v-6.2C90.4,66.6,87.9,66.7,87.9,66.7z"/>
					</g>
				</g>
				<g>
					<g>
						<path class="st2" d="M91.4,66.7c0,0-2.5,0-2.5,2.7v6.2h1.5v-6.2c0,0-0.2-1.2,1.6-1.2h1.4v7.4h1.5v-0.1l0,0v-8.7h-3.5V66.7z"/>
					</g>
				</g>
			</g>
			<g>
				<polygon class="st2" points="95.5,66.1 99.1,66.1 97.5,64.6 95.5,64.6 				"/>
				<g>
					<g>
						<g>
							<path class="st2" d="M98.5,74c-1.8,0-1.6-1.2-1.6-1.2v-6.1h-1.5v6.1c0,2.7,2.5,2.7,2.5,2.7h2.9V74H98.5z"/>
						</g>
					</g>
					<path class="st2" d="M98.9,66.7h-2l0,0h-1.5v5.7h1.5l0,0h2c0,0,2.5,0,2.5-2.7v-0.2C101.4,66.7,98.9,66.7,98.9,66.7z M99.9,69.7
						c0,0.3-0.1,1.1-1.6,1.1h-1.4v-2.6h1.4c1.5,0,1.6,0.8,1.6,1.1C99.9,69.4,99.9,69.7,99.9,69.7z"/>
				</g>
			</g>
			<g>
				<path class="st2" d="M72.4,66.7c-2.5,0-4.5,2-4.5,4.5s2,4.4,4.5,4.5c2.5,0,4.5-2,4.5-4.5S74.9,66.7,72.4,66.7z M72.4,74.1
					c-1.6,0-3-1.3-3-2.9s1.3-2.9,3-2.9c1.6,0,2.9,1.3,2.9,2.9C75.4,72.8,74,74.1,72.4,74.1z"/>
			</g>
		</g>
		<path class="st2" d="M6.8,28.4c0,1.8-1.3,3.2-2.9,3.2S1,30.2,1,28.4s1.3-3.2,2.9-3.2C5.5,25.2,6.8,26.6,6.8,28.4z"/>
		<polygon class="st2" points="1.7,33.6 6.2,33.6 6.2,60 1.7,60 		"/>
		<path class="st2" d="M18.9,52.6V26.2l-4.5,4.9v21.5c0,0-0.1,7.9,7.1,7.9l3.9-4.3h-3.6C21.8,56.1,18.9,56.2,18.9,52.6z"/>
		<rect x="2.4" y="33.6" class="st2" width="22.7" height="5.2"/>
		<path class="st3" d="M116.3,52.6V26.2l-4.6,4.9v21.5c0,0-0.1,7.9,7.1,7.9l3.9-4.3h-3.6C119.2,56.1,116.3,56.2,116.3,52.6z"/>
		<rect x="109.7" y="33.6" class="st3" width="12.8" height="5.2"/>
		<path class="st2" d="M41.5,36.6l-2.6,3.1c0,0-4.4-5.2-7.9-1c0,0-1.9,2.9,1.3,4.6c0,0,5,1.7,5.3,1.8c0,0,4.7,1.4,4.7,6.7
			c0,0,0.7,7.8-7.9,8.7c0,0-5.9,0.2-8.5-4.3l2.7-3.1c0,0,2.1,3.1,5.4,3c0,0,3.9-0.1,3.9-3.4c0,0,0.5-2.7-4-3.9c0,0-7.9-1.5-7.9-7.1
			c0,0-0.6-8.3,7.6-8.8C33.7,32.8,37.8,32.3,41.5,36.6z"/>
		<g>
			<g>
				<path class="st2" d="M56.3,33.2h-8.9v4.6h7c5.4,0,4.8,3.6,4.8,3.6v2c-1.6-1.2-3.7-2-5.9-2c-5.3,0-9.6,4.2-9.6,9.4
					c0,5.2,4.3,9.4,9.6,9.4c2.2,0,4.3-0.7,5.9-2V60h4.6V41.4C63.9,33.1,56.3,33.2,56.3,33.2z M53.6,56.2c-3.1,0-5.7-2.4-5.7-5.4
					s2.5-5.4,5.7-5.4c3.1,0,5.7,2.4,5.7,5.4C59.2,53.8,56.7,56.2,53.6,56.2z"/>
			</g>
		</g>
		<g>
			<g>
				<path class="st3" d="M78.4,33.2h-8.9l0,0h-1.8V60h4.6v-0.4l0,0V37.8h4.2c5.4,0,4.8,3.6,4.8,3.6V60h4.6V41.4
					C86,33.1,78.4,33.2,78.4,33.2z"/>
			</g>
		</g>
		<g>
			<g>
				<g>
					<path class="st3" d="M105.5,55.4h-7c-5.4,0-4.8-3.7-4.8-3.7V33.1h-4.6v18.6c0,8.4,7.6,8.2,7.6,8.2h8.9L105.5,55.4z"/>
				</g>
			</g>
			<path class="st3" d="M99.7,33.2h-6.1l0,0H89v17.2h4.6l0,0h6.1c0,0,7.6,0.1,7.6-8.2v-0.7C107.3,33.1,99.7,33.2,99.7,33.2z
				 M102.7,42.4c0,0.8-0.3,3.4-4.9,3.4h-4.2v-8h4.2c4.5,0,4.9,2.6,4.9,3.4C102.7,41.3,102.7,42.2,102.7,42.4z"/>
		</g>
	</g>
	<g>
		<path class="st2" d="M152.5,16.3v0.6l-0.1,4l-0.1,4l-0.1,4l-0.1,4l-0.1,4l-0.1,4l-0.1,4v0.2l23.9,3V48l-0.1-1.1l-1.5-25.2
			L152.5,16.3"/>
		<g>
			<path class="st3" d="M155.1,30.2l-0.1,2.7c-0.2,0,0,0.2,0.6,0.6l2.2,1.8v0.1V28v-2.3l3.2,4.4l4.7,6.6l1.9-2.5l-4.1-5.6l-3-4.2
				l0,0L163,25l2.7,0.6l1.4,0.3l-1.1-3.6l-0.8-0.2l-2.7-0.7l-2.9-0.7l-3.1-0.8l-1.3-0.3L155.1,30.2"/>
			<path class="st3" d="M165.5,44.7C165.6,44.7,165.6,44.7,165.5,44.7c3.5-2.4,4.4-7.1,2.1-10.6l-2.4,1.6c0.7,1,0.9,2.3,0.7,3.5
				c-0.2,1.2-0.9,2.3-2,3L165.5,44.7z"/>
		</g>
	</g>
</g>
</svg>
